<svg width="23" height="23" viewBox="0 0 23 23" fill="none" xmlns="http://www.w3.org/2000/svg">
<path d="M11.5 21.625C17.0919 21.625 21.625 17.0919 21.625 11.5C21.625 5.90812 17.0919 1.375 11.5 1.375C5.90812 1.375 1.375 5.90812 1.375 11.5C1.375 17.0919 5.90812 21.625 11.5 21.625Z" stroke="#003CE5" stroke-width="2" stroke-miterlimit="10"/>
<path d="M11.5 12.7656C12.199 12.7656 12.7656 12.199 12.7656 11.5C12.7656 10.801 12.199 10.2344 11.5 10.2344C10.801 10.2344 10.2344 10.801 10.2344 11.5C10.2344 12.199 10.801 12.7656 11.5 12.7656Z" fill="#003CE5"/>
<path d="M11.5 8.125C12.199 8.125 12.7656 7.55836 12.7656 6.85938C12.7656 6.16039 12.199 5.59375 11.5 5.59375C10.801 5.59375 10.2344 6.16039 10.2344 6.85938C10.2344 7.55836 10.801 8.125 11.5 8.125Z" fill="#003CE5"/>
<path d="M11.5 17.4062C12.199 17.4062 12.7656 16.8396 12.7656 16.1406C12.7656 15.4416 12.199 14.875 11.5 14.875C10.801 14.875 10.2344 15.4416 10.2344 16.1406C10.2344 16.8396 10.801 17.4062 11.5 17.4062Z" fill="#003CE5"/>
</svg>
