<svg width="32" height="32" viewBox="0 0 32 32" fill="none" xmlns="http://www.w3.org/2000/svg">
<g clip-path="url(#clip0_34_205)">
<path d="M10 16.8587L21.2825 26.75C21.4125 26.8646 21.57 26.9435 21.7397 26.979C21.9093 27.0144 22.0853 27.0051 22.2502 26.9521C22.4152 26.899 22.5636 26.804 22.6808 26.6763C22.798 26.5486 22.88 26.3926 22.9187 26.2237L28 4.15246C28.005 4.13033 28.0038 4.10726 27.9967 4.08574C27.9895 4.06421 27.9766 4.04504 27.9594 4.03026C27.9422 4.01549 27.9213 4.00568 27.899 4.00189C27.8766 3.99809 27.8536 4.00045 27.8325 4.00871L2.5 13.9225C2.34274 13.983 2.20935 14.0929 2.11986 14.2357C2.03038 14.3785 1.98962 14.5464 2.0037 14.7143C2.01779 14.8823 2.08596 15.0411 2.19799 15.167C2.31002 15.2928 2.45985 15.379 2.625 15.4125L10 16.8587Z" stroke="white" stroke-width="2" stroke-linecap="round" stroke-linejoin="round"/>
<path d="M10 16.8587L27.9263 4.01123" stroke="white" stroke-width="2" stroke-linecap="round" stroke-linejoin="round"/>
<path d="M15.5463 21.7225L11.72 25.6925C11.5817 25.836 11.4038 25.9348 11.209 25.9765C11.0141 26.0181 10.8113 26.0006 10.6265 25.9262C10.4417 25.8518 10.2833 25.7239 10.1717 25.5588C10.0601 25.3938 10.0003 25.1992 10 25V16.8588" stroke="white" stroke-width="2" stroke-linecap="round" stroke-linejoin="round"/>
</g>
<defs>
<clipPath id="clip0_34_205">
<rect width="32" height="32" fill="white"/>
</clipPath>
</defs>
</svg>
