<svg width="34" height="34" viewBox="0 0 34 34" fill="none" xmlns="http://www.w3.org/2000/svg">
<g clip-path="url(#clip0_34_216)">
<path d="M17 29.75C24.0416 29.75 29.75 24.0416 29.75 17C29.75 9.95837 24.0416 4.25 17 4.25C9.95837 4.25 4.25 9.95837 4.25 17C4.25 24.0416 9.95837 29.75 17 29.75Z" stroke="white" stroke-width="2" stroke-linecap="round" stroke-linejoin="round"/>
<path d="M10.0781 16.3705L11.8472 13.2813C11.9406 13.1195 12.0749 12.9853 12.2368 12.892C12.3986 12.7987 12.5821 12.7498 12.7689 12.75H14.9882C15.1676 12.7503 15.3441 12.7046 15.5009 12.6172L17.1331 11.7194C17.2049 11.6808 17.2715 11.633 17.331 11.5773L20.9063 8.34597C21.0842 8.18418 21.202 7.96683 21.2403 7.72944C21.2787 7.49206 21.2354 7.24868 21.1175 7.0391L19.723 4.54089" stroke="white" stroke-width="2" stroke-linecap="round" stroke-linejoin="round"/>
<path d="M9.00165 7.06958L7.43712 10.7684C7.33145 11.0188 7.32574 11.3002 7.42119 11.5547L8.94853 15.628C9.01128 15.7944 9.11482 15.9425 9.24964 16.0585C9.38446 16.1745 9.54625 16.2548 9.72017 16.2921L12.5663 16.9043C12.7242 16.9382 12.8723 17.0076 12.9993 17.1072C13.1263 17.2069 13.229 17.3342 13.2995 17.4794L13.8042 18.5247C13.8912 18.7042 14.0271 18.8556 14.1962 18.9616C14.3653 19.0675 14.5608 19.1237 14.7604 19.1236H16.5932" stroke="white" stroke-width="2" stroke-linecap="round" stroke-linejoin="round"/>
<path d="M28.3012 22.9074L21.3445 18.6282C21.218 18.5511 21.0769 18.5009 20.9301 18.4808L17.8993 18.0717C17.6717 18.0409 17.4402 18.0847 17.2396 18.1965C17.0389 18.3083 16.8799 18.4822 16.7863 18.692L14.9668 22.7746C14.8823 22.9646 14.8553 23.1752 14.8893 23.3804C14.9233 23.5855 15.0167 23.7762 15.1581 23.9288L17.7798 26.6289C17.8934 26.751 17.9767 26.8983 18.0229 27.0586C18.069 27.219 18.0767 27.388 18.0454 27.5519L17.6244 29.7353" stroke="white" stroke-width="2" stroke-linecap="round" stroke-linejoin="round"/>
</g>
<defs>
<clipPath id="clip0_34_216">
<rect width="34" height="34" fill="white"/>
</clipPath>
</defs>
</svg>
